<svg xmlns="http://www.w3.org/2000/svg" xmlns:xlink="http://www.w3.org/1999/xlink" width="542" height="522" viewBox="0 0 542 522"><defs><linearGradient id="a" x1="0.5" x2="0.5" y2="1.656" gradientUnits="objectBoundingBox"><stop offset="0" stop-color="#fe8b3b"/><stop offset="1" stop-color="#f7585e"/></linearGradient></defs><g transform="translate(173 -2373)"><rect width="542" height="522" rx="29" transform="translate(-173 2373)" fill="rgba(255,255,255,0.04)" opacity="0.99"/><g transform="translate(12 2526.547)"><path d="M306.724,362.628c17.341,0,34.683.084,52.021-.072,3.416-.03,4.423.954,4.406,4.4-.132,26.829-.051,53.658-.088,80.487-.009,6.86-3.009,9.753-9.9,9.844-.327,0-.657-.025-.981,0-4.012.367-9.22-1.8-11.742.935-2.47,2.681-.648,7.82-.75,11.875-.139,5.558.087,11.128-.112,16.684-.249,6.956-5.257,11.783-11.86,11.76-6.9-.024-11.956-4.979-12.052-12.082q-.172-12.758.011-25.52c.039-2.673-.682-3.631-3.547-3.73-14.715-.5-14.71-.591-14.714,14.142,0,5.071.117,10.147-.062,15.212-.255,7.205-5.318,12.082-12.161,11.984-6.8-.1-11.668-5.131-11.747-12.365-.09-8.342-.137-16.688.028-25.028.058-2.948-.76-4.124-3.846-3.927a109.755,109.755,0,0,1-11.283.02c-5.054-.2-8.374-3.339-8.389-8.345-.091-27.647.006-55.294-.124-82.941-.017-3.641,2.021-3.347,4.382-3.344Q280.468,362.648,306.724,362.628Z" transform="translate(-220.356 -293.306)" fill="url(#a)"/><path d="M249.389,355.353c2.3-17.647,10.812-31.528,25.576-41.391,3.044-2.034,3.522-3.357,1.659-6.386-2.3-3.74-4.07-7.806-6.09-11.721-.64-1.239-1.164-2.545.381-3.383,1.659-.9,2.293.5,2.9,1.672,2.249,4.347,4.563,8.664,6.685,13.074.966,2.009,1.908,2.426,4.107,1.541a56.352,56.352,0,0,1,43.4-.129c2.268.907,3.165.132,4.163-1.693,2.35-4.294,4.83-8.519,7.314-12.738.72-1.223,1.525-2.96,3.311-1.754,1.339.905.629,2.348-.046,3.521-2.281,3.959-4.395,8.032-6.917,11.831-1.812,2.728-1.153,3.943,1.459,5.647,14.267,9.3,22.977,22.371,25.929,39.237.381,2.175.448,3.205-2.3,3.2q-55.168-.147-110.336-.134A4.91,4.91,0,0,1,249.389,355.353Zm31.583-19.834c2.476-.435,4.326-1.8,4.326-4.738a4.3,4.3,0,0,0-4.552-4.678c-3.031-.049-4.991,1.812-4.866,4.891C275.993,333.789,277.884,335.3,280.972,335.52Zm51.47-9.5c-2.7.3-4.629,1.665-4.737,4.558a4.34,4.34,0,0,0,4.431,4.842c3.087.167,5.03-1.628,5.062-4.71C337.227,327.838,335.3,326.382,332.442,326.025Z" transform="translate(-220.348 -292.038)" fill="url(#a)"/><path d="M243.84,398.779c0,8.655.083,17.312-.025,25.966-.1,7.718-5.317,13.029-12.369,12.838-6.793-.184-11.579-5.494-11.6-13.068q-.065-25.72,0-51.442c.019-7.593,4.789-12.895,11.584-13.071,7.057-.182,12.276,5.1,12.38,12.81C243.929,381.467,243.839,390.123,243.84,398.779Z" transform="translate(-219.816 -293.26)" fill="url(#a)"/><path d="M394.722,398.965c0,8.656.058,17.313-.017,25.968-.064,7.388-5.152,12.665-12.021,12.654-6.667-.01-11.853-5.083-11.915-12.277q-.227-26.455-.024-52.915c.048-7.338,5.456-12.575,12.3-12.392,6.665.178,11.6,5.4,11.659,12.5C394.774,381.326,394.722,390.146,394.722,398.965Z" transform="translate(-222.529 -293.26)" fill="url(#a)"/></g><text transform="translate(-5 2775)" fill="#fff" font-size="30" font-family="Cairo-Bold, Cairo" font-weight="700"><tspan x="22.7" y="39">الهواتف الذكيه</tspan></text></g></svg>