<svg xmlns="http://www.w3.org/2000/svg" xmlns:xlink="http://www.w3.org/1999/xlink" width="542" height="522" viewBox="0 0 542 522"><defs><linearGradient id="a" x1="0.5" x2="0.5" y2="1.656" gradientUnits="objectBoundingBox"><stop offset="0" stop-color="#fe8b3b"/><stop offset="1" stop-color="#f7585e"/></linearGradient></defs><g transform="translate(-395 -2373)"><g transform="translate(-7)"><g transform="translate(223)"><rect width="542" height="522" rx="29" transform="translate(179 2373)" fill="rgba(255,255,255,0.04)" opacity="0.99"/></g><g transform="translate(483 2526.547)"><path d="M-235.247,388.406c-9.729-1.746-15.743-8.573-21.5-15.742A119.937,119.937,0,0,1-281,320.8c-2.846-13.982-3.4-27.976.785-41.806,3.822-12.628,10.776-23.021,22.39-29.853a46.244,46.244,0,0,1,21.012-6.34c5.284-.311,10.312.946,15.222,2.733,3.418,1.244,6.829,2.516,10.185,3.914a18.506,18.506,0,0,0,14.792-.178c6.031-2.468,12.033-5.148,18.5-6.3,18.233-3.237,33.067,2.614,44.691,16.926.842,1.037.583,1.454-.411,2.156-12.661,8.948-19.558,21.24-19.21,36.7.381,16.977,8.769,29.528,23.8,37.487,1.411.747,1.588,1.307,1.1,2.72a117.741,117.741,0,0,1-23.217,39.476,28.553,28.553,0,0,1-11.7,8.263c-6.507,2.371-12.848,1.462-19.081-1.125-4.147-1.722-8.207-3.707-12.672-4.52a34.945,34.945,0,0,0-19.128,1.58c-5.728,2.2-11.232,5.051-17.449,5.765Z" transform="translate(283.245 -195.439)" fill="url(#a)"/><path d="M-2.364,97a44.808,44.808,0,0,1-2.619,17.995c-4.633,11.836-12.229,20.782-24.7,24.838a34.356,34.356,0,0,1-9.629,1.6c-1.29.04-1.632-.381-1.623-1.621.121-16.491,7.611-28.748,21.483-37.268A38.75,38.75,0,0,1-4.228,97.3a5.05,5.05,0,0,0,.9-.3Z" transform="translate(118.865 -96.999)" fill="url(#a)"/><path d="M577.33,407.572c-4.234,0-8.469-.028-12.7.021a1.6,1.6,0,0,1-1.848-1.242Q539.639,340.308,516.41,274.3c-.483-1.373-.172-1.588,1.152-1.58q12.38.069,24.762-.01c1.294-.01,1.724.5,2.067,1.622q16.049,52.4,32.169,104.786c.217.707.094,1.956,1.013,1.933.866-.022.761-1.263.982-1.982q16.115-52.386,32.165-104.791a1.831,1.831,0,0,1,2.1-1.566q12.139.091,24.28,0c1.355-.009,1.466.335,1.049,1.522q-23.143,65.952-46.21,131.931a1.809,1.809,0,0,1-2.068,1.433C585.692,407.533,581.511,407.572,577.33,407.572Z" transform="translate(-259.088 -216.196)" fill="url(#a)"/><path d="M265.281,267.162c0-13.5-.018-27.009.028-40.513,0-1.307-.3-1.737-1.671-1.719-5.679.077-11.361-.01-17.041.064-1.3.017-1.592-.389-1.58-1.621.06-6,.075-12-.008-18.005-.019-1.41.466-1.663,1.74-1.648,5.412.064,10.825-.013,16.236.056,1.313.016,1.73-.32,1.722-1.686-.058-9.807,0-19.613-.064-29.42-.009-1.369.392-1.673,1.7-1.663q11.816.091,23.632,0c1.311-.01,1.716.3,1.707,1.662-.062,9.377-.042,18.756-.026,28.134,0,2.815-.361,2.421,2.51,2.429,7.234.019,14.469.033,21.7-.02,1.184-.009,1.56.289,1.548,1.513q-.092,9,0,18.005c.015,1.319-.324,1.723-1.682,1.711-7.448-.066-14.9.009-22.346-.066-1.46-.015-1.771.448-1.769,1.826q.059,37.056.031,74.113a26.744,26.744,0,0,0,1.059,8.091c1.753,5.566,5.74,8.425,11.359,9.295a42.656,42.656,0,0,0,11.531-.218c1.284-.15,1.778-.05,1.758,1.433-.082,6.108-.036,12.218-.032,18.327,0,.752.129,1.451-1.009,1.6-9.24,1.2-18.48,1.567-27.673-.263-13.711-2.729-21.1-10.9-22.734-24.827a95.9,95.9,0,0,1-.639-11.381Q265.3,284.766,265.281,267.162Z" transform="translate(-75.117 -147.205)" fill="url(#a)"/></g></g><text transform="translate(613 2775)" fill="#fff" font-size="30" font-family="Cairo-Bold, Cairo" font-weight="700"><tspan x="8.215" y="39">Apple TV</tspan></text></g></svg>