<svg xmlns="http://www.w3.org/2000/svg" xmlns:xlink="http://www.w3.org/1999/xlink" width="81.782" height="79.663" viewBox="0 0 81.782 79.663"><defs><linearGradient id="a" x1="0.5" x2="0.5" y2="1" gradientUnits="objectBoundingBox"><stop offset="0" stop-color="#f75d5a"/><stop offset="1" stop-color="#fd8540"/></linearGradient></defs><g transform="translate(0 0)"><path d="M239.712,376.535c-5.258,0-10.517.03-15.774-.024a1.783,1.783,0,0,0-2.055,1.383,18.972,18.972,0,1,1-26.053-23.375,2.015,2.015,0,0,0,1.334-2.158c-.052-6.692-.029-13.384-.022-20.076.006-5.3,3.427-8.691,8.746-8.778,2.678-.044,5.643.809,7.952-.332,2.234-1.1,3.811-3.541,5.673-5.4,1.9-1.9,3.834-3.772,5.693-5.714.947-.989,1.727-1.08,2.681-.027,1,1.105,2.165,2.068,3.138,3.2.837.969,1.429,1.154,2.344.057,1.03-1.234,2.308-2.257,3.381-3.458,1.026-1.149,1.838-1.179,2.944-.039,3.37,3.474,6.86,6.83,10.227,10.306a3.719,3.719,0,0,0,3.422,1.432,12.671,12.671,0,0,1,2.148-.006,8.258,8.258,0,0,1,8.324,8.314c.063,2.568.042,5.139,0,7.708-.017,1.018.052,1.747,1.392,1.594,1.133-.129,1.578.526,1.573,1.642q-.035,7.26,0,14.52c.008,1.268-.607,1.757-1.769,1.636-.98-.1-1.214.324-1.2,1.227.048,2.569.037,5.138.018,7.708-.039,5.157-3.527,8.625-8.7,8.66-2.569.018-5.138,0-7.708,0Zm-9.17-50.87c-8.242,0-16.484-.016-24.726.007-4,.011-6.51,2.505-6.524,6.473-.024,6.51.01,13.02-.024,19.53-.006,1.108.126,1.476,1.455,1.285,12.588-1.809,22.583,7.182,22.2,19.944-.038,1.237.3,1.508,1.45,1.5,10.332-.034,20.664,0,31-.032a6.062,6.062,0,0,0,6.3-6.172c.063-2.626-.036-5.257.038-7.883.032-1.125-.372-1.42-1.441-1.4-3.224.057-6.45.025-9.675.019-5.756-.01-9.738-3.681-9.718-8.953s3.992-8.86,9.8-8.869c3.166-.005,6.332-.046,9.5.022,1.151.025,1.583-.288,1.538-1.5-.087-2.326-.02-4.658-.027-6.987-.012-4.549-2.424-6.984-6.95-6.989Q242.637,325.654,230.542,325.665Zm-26.6,62.8a16.849,16.849,0,1,0-16.811-17.08A16.842,16.842,0,0,0,203.947,388.469Zm52.428-31.682c2.209,0,4.42-.064,6.625.026,1.2.049,1.689-.208,1.655-1.538-.091-3.519-.064-7.044-.011-10.565.016-1.049-.238-1.477-1.379-1.462-4.536.058-9.074-.044-13.609.054a6.627,6.627,0,0,0-6.642,6.778,6.714,6.714,0,0,0,6.915,6.708C252.077,356.815,254.226,356.792,256.375,356.787Zm-39.448-33.415h19.248c-3.163-3.154-6.083-6.049-8.977-8.969-.5-.5-.816-.475-1.308.021C223,317.344,220.079,320.233,216.927,323.372Zm31.479.136c-2.471-2.446-4.517-4.527-6.628-6.539-1.191-1.136-2.248-3.288-3.592-3.145-1.307.138-2.422,2.1-3.621,3.26a1.569,1.569,0,0,1-.126.127c-.621.472-.572.877,0,1.416,1.471,1.4,2.889,2.853,4.317,4.3a1.654,1.654,0,0,0,1.239.593C242.6,323.5,245.216,323.509,248.407,323.509Z" transform="translate(-184.999 -310.952)" fill="url(#a)"/><path d="M232.059,473.34a1.074,1.074,0,0,1-.674.97,1.12,1.12,0,0,1-1.284-.387c-1.485-1.47-3-2.91-4.417-4.447-.744-.809-1.208-.849-1.969-.013-1.365,1.5-2.851,2.889-4.289,4.322-.55.548-1.146.964-1.828.223-.6-.654-.212-1.21.28-1.706,1.429-1.442,2.83-2.915,4.317-4.295.779-.723.9-1.2.042-1.979-1.46-1.319-2.8-2.769-4.2-4.16-.581-.579-1.169-1.231-.36-1.962.684-.618,1.308-.129,1.851.422,1.426,1.444,2.9,2.842,4.292,4.319.63.668,1.037.74,1.7.025,1.382-1.485,2.86-2.88,4.292-4.32.583-.586,1.228-1.136,1.965-.343.658.707.12,1.309-.412,1.84-1.395,1.392-2.745,2.832-4.2,4.162-.8.736-.867,1.206-.021,1.97,1.46,1.319,2.808,2.763,4.2,4.157A1.841,1.841,0,0,1,232.059,473.34Z" transform="translate(-205.706 -406.307)" fill="url(#a)"/><path d="M363.045,412.735a3.952,3.952,0,0,1-3.85,4.064,3.983,3.983,0,1,1-.153-7.963A3.91,3.91,0,0,1,363.045,412.735Zm-3.97-1.767a1.778,1.778,0,0,0-1.821,1.8,1.69,1.69,0,0,0,1.9,1.857,1.645,1.645,0,0,0,1.72-1.842A1.745,1.745,0,0,0,359.074,410.969Z" transform="translate(-294.082 -373.736)" fill="url(#a)"/></g></svg>