<svg id="chat-icon" xmlns="http://www.w3.org/2000/svg" width="27.632" height="31.739" viewBox="0 0 27.632 31.739">
  <path id="Union_3" data-name="Union 3" d="M19.953,28.408l-.058-.018a9.555,9.555,0,0,1-1.763.163H9.5a9.5,9.5,0,0,1-9.5-9.5V9.5A9.5,9.5,0,0,1,9.5,0h8.632a9.5,9.5,0,0,1,9.5,9.5v9.553a9.527,9.527,0,0,1-.251,2.179l.246-.214V31.739Z" transform="translate(0 0)" fill="#fff"/>
  <path id="Path_371" data-name="Path 371" d="M42.286,72.9s2.621,3.224,9.3,3.224S60.42,72.9,60.42,72.9" transform="translate(-37.364 -52.814)" fill="none" stroke="#09f" stroke-linecap="round" stroke-width="4"/>
</svg>
