<svg xmlns="http://www.w3.org/2000/svg" xmlns:xlink="http://www.w3.org/1999/xlink" width="36.504" height="24.336" viewBox="0 0 36.504 24.336"><defs><clipPath id="a"><path d="M221.906,241.392l.355-.31a1.273,1.273,0,0,0,.8.437c.592.128.676,1.931.676,1.931l-1.827,1.4Z" transform="translate(-221.906 -241.082)" fill="none"/></clipPath><clipPath id="b"><path d="M233.388,262.336l-.818-.321.72-2.19.818.32Z" transform="translate(-232.569 -259.826)" fill="#fff" stroke="#c0a312" stroke-linecap="round" stroke-linejoin="round" stroke-width="1"/></clipPath><clipPath id="c"><path d="M259.454,241.392l-.355-.31a1.273,1.273,0,0,1-.8.437c-.592.128-.676,1.931-.676,1.931l1.827,1.4Z" transform="translate(-257.627 -241.082)" fill="none"/></clipPath><clipPath id="d"><path d="M250.915,262.336l.818-.321-.72-2.19-.818.32Z" transform="translate(-250.195 -259.826)" fill="#fff" stroke="#c0a312" stroke-linecap="round" stroke-linejoin="round" stroke-width="1"/></clipPath><clipPath id="e"><path d="M237.52,247.022c-.854-.387-1.148-1.662-1.223-2.085h.082a2.815,2.815,0,0,1,2.282,0h.082C238.667,245.359,238.373,246.636,237.52,247.022Z" transform="translate(-236.297 -244.696)" fill="#fff" stroke="#c0a312" stroke-linecap="round" stroke-linejoin="round" stroke-width="0.5"/></clipPath><clipPath id="f"><path d="M241.819,221.287l.37.128a2.023,2.023,0,0,1-.5-1.239c0-.21.046-.608-.178-.608h-.337c-.142,0-.163.187-.163.187h-.191c-.135,0-.179.316-.179.316s.341-.257.342.105a2.024,2.024,0,0,1-.5,1.239l.37-.128Z" transform="translate(-240.487 -219.568)" fill="none" stroke="#c0a312" stroke-linecap="round" stroke-linejoin="round" stroke-width="1"/></clipPath></defs><g transform="translate(0 0)"><rect width="36.494" height="8.112" transform="translate(0.01)" fill="#a73a2f"/><rect width="36.494" height="8.112" transform="translate(0.01 8.112)" fill="#fff"/><rect width="36.494" height="8.112" transform="translate(0 16.224)"/><g transform="translate(15.745 8.628)"><g transform="translate(0.096 5.618)"><path d="M225.416,283.974q-.153,0-.308-.013a3.345,3.345,0,0,1-2.02-.839.358.358,0,1,1,.506-.506,2.647,2.647,0,0,0,1.572.632,2.722,2.722,0,0,0,2.049-.649.358.358,0,1,1,.469.54A3.432,3.432,0,0,1,225.416,283.974Z" transform="translate(-222.984 -282.511)" fill="none" stroke="#c0a312" stroke-linecap="round" stroke-linejoin="round" stroke-width="1"/></g><path d="M228.709,282.114c-.02-.121-.147-.135-.224-.029a.328.328,0,0,0-.041.248S228.737,282.287,228.709,282.114Z" transform="translate(-227.853 -276.441)" fill="#fff" stroke="#c0a312" stroke-linecap="round" stroke-linejoin="round" stroke-width="1"/><path d="M242.525,287.17c.074-.093.189-.033.206.1a.317.317,0,0,1-.082.236S242.42,287.3,242.525,287.17Z" transform="translate(-240.66 -281.095)" fill="#fff" stroke="#c0a312" stroke-linecap="round" stroke-linejoin="round" stroke-width="1"/><path d="M223.627,235.1a1.768,1.768,0,0,1-1.018-.3c-.293-.206-.7-.187-.7.719v3.516l2.48-1.907" transform="translate(-221.906 -233.341)" fill="none" stroke="#c0a312" stroke-linecap="round" stroke-linejoin="round" stroke-width="1"/><g transform="translate(0 1.92)"><g clip-path="url(#a)"><rect width="0.268" height="4.018" transform="translate(0 -0.105)" fill="#c0a312"/><rect width="0.268" height="3.84" transform="translate(0.355 -0.199)" fill="#c0a312"/><rect width="0.268" height="3.715" transform="translate(0.71 0.256)" fill="#c0a312"/><rect width="0.268" height="3.715" transform="translate(1.065 0.256)" fill="#c0a312"/><rect width="0.268" height="3.715" transform="translate(1.42 0.256)" fill="#c0a312"/></g></g><g transform="translate(0.952 3.593)"><path d="M233.388,262.336l-.818-.321.72-2.19.818.32Z" transform="translate(-232.569 -259.826)" fill="#fff"/><g clip-path="url(#b)"><path d="M238.888,262.9l0,.558.314-.327-.026.481.349-.311-.079.491.377-.29" transform="translate(-238.321 -262.626)" fill="none" stroke="#c0a312" stroke-linecap="round" stroke-linejoin="round" stroke-width="1"/><path d="M234.8,270.72l.352-.311v.428l.283-.293-.037.453.294-.258.007.552" transform="translate(-234.597 -269.464)" fill="none" stroke="#c0a312" stroke-linecap="round" stroke-linejoin="round" stroke-width="1"/><path d="M235.152,273.162l.041.588.248-.3.013.463.249-.321.067.453.356-.321" transform="translate(-234.922 -271.972)" fill="none" stroke="#c0a312" stroke-linecap="round" stroke-linejoin="round" stroke-width="1"/><path d="M230.778,281.292l.408-.375-.009.513.3-.371.013.461.281-.338-.013.364" transform="translate(-230.938 -279.034)" fill="none" stroke="#c0a312" stroke-linecap="round" stroke-linejoin="round" stroke-width="1"/></g><path d="M233.388,262.336l-.818-.321.72-2.19.818.32Z" transform="translate(-232.569 -259.826)" fill="none" stroke="#c0a312" stroke-linecap="round" stroke-linejoin="round" stroke-width="1"/></g><path d="M248.337,270.075c-.024-.255-.118-1.207-.118-1.207H248.1s-.094.953-.118,1.207a.449.449,0,0,0,.176.415h0A.45.45,0,0,0,248.337,270.075Z" transform="translate(-245.653 -264.468)" fill="#c0a312"/><path d="M243.009,269.7c.051-.25.236-1.187.236-1.187l-.052-.019-.008,0-.052-.019s-.364.872-.46,1.105a.468.468,0,0,0,.047.454h0A.42.42,0,0,0,243.009,269.7Z" transform="translate(-240.783 -264.105)" fill="#c0a312"/><g transform="translate(0.737 5.58)"><path d="M231.265,282.784h-.013a2.247,2.247,0,0,1-1.032-.427.16.16,0,0,1-.027-.211.131.131,0,0,1,.193-.029,2,2,0,0,0,.892.368.148.148,0,0,1,.124.164A.143.143,0,0,1,231.265,282.784Z" transform="translate(-230.164 -282.085)" fill="#fff" stroke="#c0a312" stroke-linecap="round" stroke-linejoin="round" stroke-width="1"/></g><path d="M235.393,285.958c-.033.089-.193.157-.193.157a.48.48,0,0,1-.039-.259.1.1,0,0,1,.158-.063A.118.118,0,0,1,235.393,285.958Z" transform="translate(-233.97 -279.867)" fill="#fff" stroke="#c0a312" stroke-linecap="round" stroke-linejoin="round" stroke-width="1"/><path d="M268.477,282.114c.02-.121.147-.135.224-.029a.328.328,0,0,1,.041.248S268.449,282.287,268.477,282.114Z" transform="translate(-264.319 -276.441)" fill="#fff" stroke="#c0a312" stroke-linecap="round" stroke-linejoin="round" stroke-width="1"/><path d="M255.073,287.17c-.074-.093-.189-.033-.206.1a.317.317,0,0,0,.082.236S255.179,287.3,255.073,287.17Z" transform="translate(-251.924 -281.095)" fill="#fff" stroke="#c0a312" stroke-linecap="round" stroke-linejoin="round" stroke-width="1"/><path d="M251.063,235.1a1.769,1.769,0,0,0,1.018-.3c.293-.206.7-.187.7.719v3.516l-2.48-1.907" transform="translate(-247.769 -233.341)" fill="none" stroke="#c0a312" stroke-linecap="round" stroke-linejoin="round" stroke-width="1"/><g transform="translate(3.188 1.92)"><g clip-path="url(#c)"><rect width="0.268" height="4.018" transform="translate(1.559 -0.105)" fill="#c0a312"/><rect width="0.268" height="3.84" transform="translate(1.204 -0.199)" fill="#c0a312"/><rect width="0.268" height="3.715" transform="translate(0.849 0.256)" fill="#c0a312"/><rect width="0.268" height="3.715" transform="translate(0.494 0.256)" fill="#c0a312"/><rect width="0.268" height="3.715" transform="translate(0.139 0.256)" fill="#c0a312"/></g></g><g transform="translate(2.525 3.593)"><path d="M250.915,262.336l.818-.321-.72-2.19-.818.32Z" transform="translate(-250.195 -259.826)" fill="#fff"/><g clip-path="url(#d)"><path d="M251.576,262.9l0,.558-.314-.327.026.481-.349-.311.079.491-.377-.29" transform="translate(-250.605 -262.626)" fill="none" stroke="#c0a312" stroke-linecap="round" stroke-linejoin="round" stroke-width="1"/><path d="M256.031,270.72l-.352-.311v.428l-.283-.293.037.453-.294-.258-.007.552" transform="translate(-254.691 -269.464)" fill="none" stroke="#c0a312" stroke-linecap="round" stroke-linejoin="round" stroke-width="1"/><path d="M254.91,273.162l-.041.588-.248-.3-.013.463-.249-.321-.067.453-.356-.321" transform="translate(-253.602 -271.972)" fill="none" stroke="#c0a312" stroke-linecap="round" stroke-linejoin="round" stroke-width="1"/><path d="M259.106,281.292l-.408-.375.009.513-.3-.371-.013.461-.281-.338.013.364" transform="translate(-257.408 -279.034)" fill="none" stroke="#c0a312" stroke-linecap="round" stroke-linejoin="round" stroke-width="1"/></g><path d="M250.915,262.336l.818-.321-.72-2.19-.818.32Z" transform="translate(-250.195 -259.826)" fill="none" stroke="#c0a312" stroke-linecap="round" stroke-linejoin="round" stroke-width="1"/></g><path d="M250.741,269.7c-.051-.25-.236-1.187-.236-1.187l.052-.019.008,0,.052-.019s.364.872.46,1.105a.469.469,0,0,1-.047.454h0A.42.42,0,0,1,250.741,269.7Z" transform="translate(-247.952 -264.105)" fill="#c0a312"/><path d="M236.156,243.292h-.009a2.649,2.649,0,0,1-1.353.242s.222,1.865,1.353,2.332h.009c1.13-.467,1.353-2.332,1.353-2.332A2.649,2.649,0,0,1,236.156,243.292Z" transform="translate(-233.645 -241.175)" fill="#fff" stroke="#c0a312" stroke-linecap="round" stroke-linejoin="round" stroke-width="0.5"/><g transform="translate(1.284 2.243)"><path d="M237.52,247.022c-.854-.387-1.148-1.662-1.223-2.085h.082a2.815,2.815,0,0,1,2.282,0h.082C238.667,245.359,238.373,246.636,237.52,247.022Z" transform="translate(-236.297 -244.696)" fill="#fff"/><g clip-path="url(#e)"><rect width="0.833" height="2.594" transform="translate(-0.027 -0.086)" fill="#c0a312"/><rect width="0.833" height="2.594" transform="translate(1.629 -0.086)" fill="#c0a312"/></g><path d="M237.52,247.022c-.854-.387-1.148-1.662-1.223-2.085h.082a2.815,2.815,0,0,1,2.282,0h.082C238.667,245.359,238.373,246.636,237.52,247.022Z" transform="translate(-236.297 -244.696)" fill="none" stroke="#c0a312" stroke-linecap="round" stroke-linejoin="round" stroke-width="0.5"/></g><g transform="translate(3.039 5.58)"><path d="M256.1,282.784h.013a2.248,2.248,0,0,0,1.033-.427.16.16,0,0,0,.027-.211.131.131,0,0,0-.193-.029,2,2,0,0,1-.892.368.148.148,0,0,0-.124.164A.143.143,0,0,0,256.1,282.784Z" transform="translate(-255.96 -282.085)" fill="#fff" stroke="#c0a312" stroke-linecap="round" stroke-linejoin="round" stroke-width="1"/></g><path d="M262.038,285.958c.033.089.193.157.193.157a.479.479,0,0,0,.039-.259.1.1,0,0,0-.158-.063A.118.118,0,0,0,262.038,285.958Z" transform="translate(-258.445 -279.867)" fill="#fff" stroke="#c0a312" stroke-linecap="round" stroke-linejoin="round" stroke-width="1"/><g transform="translate(1.658)"><g clip-path="url(#f)"><path d="M243.166,223.21a.279.279,0,0,1,.379-.13c.088.047.012.245-.116.257Z" transform="translate(-242.927 -222.742)" fill="#c0a312"/><path d="M246.5,218.5c0,.013,0,0-.191.129a.375.375,0,0,1-.39.068s-.1-.257.064-.291S246.477,218.435,246.5,218.5Z" transform="translate(-245.404 -218.502)" fill="#c0a312"/></g><path d="M241.819,221.287l.37.128a2.023,2.023,0,0,1-.5-1.239c0-.21.046-.608-.178-.608h-.337c-.142,0-.163.187-.163.187h-.191c-.135,0-.179.316-.179.316s.341-.257.342.105a2.024,2.024,0,0,1-.5,1.239l.37-.128Z" transform="translate(-240.487 -219.568)" fill="none" stroke="#c0a312" stroke-linecap="round" stroke-linejoin="round" stroke-width="1"/></g><path d="M248.9,220.894a.063.063,0,1,1-.063-.069A.066.066,0,0,1,248.9,220.894Z" transform="translate(-246.377 -220.713)" fill="#fff" stroke="#c0a312" stroke-linecap="round" stroke-linejoin="round" stroke-width="0.5"/><path d="M267.431,283.876a.553.553,0,0,0,.1-.072" transform="translate(-263.368 -278.071)" fill="none" stroke="#c0a312" stroke-linecap="round" stroke-linejoin="round" stroke-width="1"/><path d="M265.166,285.126c.047-.021.091-.043.131-.064" transform="translate(-261.305 -279.216)" fill="none" stroke="#c0a312" stroke-linecap="round" stroke-linejoin="round" stroke-width="1"/><path d="M259.735,287.352l.138-.045" transform="translate(-256.359 -281.261)" fill="none" stroke="#c0a312" stroke-linecap="round" stroke-linejoin="round" stroke-width="1"/><path d="M257.06,288.114a.864.864,0,0,0,.152-.03" transform="translate(-253.922 -281.969)" fill="none" stroke="#c0a312" stroke-linecap="round" stroke-linejoin="round" stroke-width="1"/><path d="M241.106,288.219a.564.564,0,0,0,.121.018" transform="translate(-239.392 -282.092)" fill="none" stroke="#c0a312" stroke-linecap="round" stroke-linejoin="round" stroke-width="1"/><path d="M238.684,287.439c.048.018.095.034.138.048" transform="translate(-237.187 -281.381)" fill="none" stroke="#c0a312" stroke-linecap="round" stroke-linejoin="round" stroke-width="1"/><path d="M233.408,285.034c.04.021.083.044.129.066" transform="translate(-232.381 -279.191)" fill="none" stroke="#c0a312" stroke-linecap="round" stroke-linejoin="round" stroke-width="1"/><path d="M231.083,283.576a.859.859,0,0,0,.129.086" transform="translate(-230.264 -277.863)" fill="none" stroke="#c0a312" stroke-linecap="round" stroke-linejoin="round" stroke-width="1"/><path d="M243.944,230.373l-.315.164a2.3,2.3,0,0,0,.277-1.017" transform="translate(-241.69 -228.632)" fill="#fff" stroke="#c0a312" stroke-linecap="round" stroke-linejoin="round" stroke-width="1"/><path d="M252.883,230.373l.315.164a2.3,2.3,0,0,1-.277-1.017" transform="translate(-250.118 -228.632)" fill="#fff" stroke="#c0a312" stroke-linecap="round" stroke-linejoin="round" stroke-width="1"/><g transform="translate(2.254 0.841)"><path d="M247.273,229a2.843,2.843,0,0,1-.117.9l.249.269.262-.269a2.843,2.843,0,0,1-.117-.9" transform="translate(-247.156 -228.996)" fill="#fff" stroke="#c0a312" stroke-linecap="round" stroke-linejoin="round" stroke-width="1"/></g></g></g></svg>