<svg xmlns="http://www.w3.org/2000/svg" xmlns:xlink="http://www.w3.org/1999/xlink" width="855.126" height="971.999" viewBox="0 0 855.126 971.999"><defs><linearGradient id="a" x1="0.5" x2="0.5" y2="1" gradientUnits="objectBoundingBox"><stop offset="0" stop-color="#f75d5a"/><stop offset="1" stop-color="#fd8540"/></linearGradient></defs><g transform="translate(0.001 0)"><path d="M855.126,972H26A25.978,25.978,0,0,1,0,946V26A25.978,25.978,0,0,1,26,0H855.126V404.977a123.853,123.853,0,0,0-11.551,17.508A134.2,134.2,0,0,0,830.154,457.4a115.009,115.009,0,0,0-.936,47.584,120.927,120.927,0,0,0,8.7,27.059,148.676,148.676,0,0,0,17.206,28.445V972Z" transform="translate(-0.001 0)" fill="url(#a)"/></g></svg>