<svg xmlns="http://www.w3.org/2000/svg" xmlns:xlink="http://www.w3.org/1999/xlink" width="87.123" height="64.294" viewBox="0 0 87.123 64.294"><defs><linearGradient id="a" x1="0.5" x2="0.5" y2="1" gradientUnits="objectBoundingBox"><stop offset="0" stop-color="#f75d5a"/><stop offset="1" stop-color="#fd8540"/></linearGradient></defs><g transform="translate(0 0)"><path d="M431.347,267.537q14.419,0,28.838,0c8.835.006,14.727,6.7,14.728,16.721,0,10.36.02,20.721-.006,31.081-.02,8.069-4.162,14.218-10.739,16.068a13.075,13.075,0,0,1-3.576.4q-29.307,0-58.615,0c-8.051-.008-14.1-6.793-14.141-15.915q-.074-16.251,0-32.5c.046-9.018,6.065-15.8,14.045-15.839C411.7,267.5,421.526,267.538,431.347,267.537Zm.1,3.216q-14.577,0-29.155,0c-6.924.01-11.623,5.313-11.635,13.143q-.025,15.72,0,31.441c.01,7.949,4.7,13.275,11.69,13.277q29,.011,58,0c6.995,0,11.708-5.3,11.736-13.25q.055-15.631.005-31.263c-.022-8.079-4.7-13.343-11.795-13.349Q445.866,270.744,431.445,270.754Z" transform="translate(-387.798 -267.523)" fill="url(#a)"/><path d="M534.445,329.889c0-5.529.031-11.058-.023-16.586-.013-1.3.28-1.689,1.314-1.665,3.447.081,6.9-.013,10.342.062,7.43.162,11.341,4.436,12.452,13.77a31.875,31.875,0,0,1-1.076,14.162c-1.774,5.222-4.951,8.138-9.4,8.439-4.168.282-8.355.1-12.532.2-1.155.027-1.078-.838-1.077-1.793Q534.451,338.182,534.445,329.889Zm5.868.077c0,3.548.024,7.1-.014,10.644-.012,1.073.222,1.558,1.139,1.5,1.874-.113,3.759-.012,5.624-.216,2.967-.324,4.386-1.879,5.118-5.564a32.95,32.95,0,0,0,.136-11.922c-.648-3.862-2.44-5.992-5.233-6.311-1.865-.213-3.75-.145-5.624-.257-.878-.053-1.181.357-1.166,1.479C540.34,322.869,540.31,326.418,540.313,329.967Z" transform="translate(-488.444 -297.804)" fill="url(#a)"/><path d="M441.137,329.724c0-5.525.025-11.049-.02-16.573-.01-1.265.259-1.787,1.319-1.687,1.451.137,3.323-.553,4.256.352,1.008.978.277,3.444.327,5.256.068,2.43.052,4.867,0,7.3-.022,1.079.215,1.514,1.133,1.5q4.622-.088,9.245,0c.941.019,1.137-.469,1.128-1.519-.032-3.682.047-7.367-.038-11.047-.035-1.522.382-1.96,1.521-1.839a15.888,15.888,0,0,0,3.131,0c.975-.09,1.256.366,1.245,1.563-.045,4.6-.017,9.207-.018,13.81,0,6.445-.034,12.891.024,19.335.013,1.452-.294,1.9-1.479,1.9-4.4,0-4.4.056-4.4-5.5,0-2.894-.043-5.789.019-8.68.028-1.291-.175-1.877-1.352-1.836-2.975.1-5.955.081-8.931.008-.972-.024-1.251.36-1.236,1.566.052,4.208-.019,8.418.042,12.626.02,1.344-.26,1.92-1.385,1.808a16.494,16.494,0,0,0-3.131,0c-1.081.1-1.442-.37-1.428-1.766C441.171,340.773,441.137,335.248,441.137,329.724Z" transform="translate(-424.395 -297.601)" fill="url(#a)"/></g></svg>