<svg xmlns="http://www.w3.org/2000/svg" xmlns:xlink="http://www.w3.org/1999/xlink" width="75.963" height="75.966" viewBox="0 0 75.963 75.966"><defs><linearGradient id="a" x1="0.5" x2="0.5" y2="1" gradientUnits="objectBoundingBox"><stop offset="0" stop-color="#f75d5a"/><stop offset="1" stop-color="#fd8540"/></linearGradient></defs><g transform="translate(0 0)"><path d="M260.888,335.795a37.982,37.982,0,1,1-37.815-37.982A37.915,37.915,0,0,1,260.888,335.795Zm-2.185-.312c-.047-.824-.1-1.988-.188-3.148-.052-.661-.146-1.322-.263-1.976-2.429-13.623-10.037-23.257-22.957-28.042-12.857-4.762-24.85-2.394-35.574,6.219-1,.8-1.286,1.28-.194,2.367q24.229,24.115,48.347,48.342c.9.9,1.344.885,2.15-.073A36.143,36.143,0,0,0,258.7,335.483ZM216.51,338.3c0-2-.047-4,.02-5.991a2.886,2.886,0,0,0-.982-2.324c-5.828-5.783-11.661-11.562-17.4-17.435-1.158-1.186-1.675-.926-2.6.175a35.824,35.824,0,0,0,4.31,50.44c13.33,11.314,33.451,11.186,46.435-.3.549-.485,1.346-.819.381-1.772q-8.112-8.01-16.129-16.115a1.072,1.072,0,0,0-1.436-.268c-3.6,1.7-7.437,1.5-11.272,1.306-1.077-.055-1.383-.525-1.346-1.56C216.561,342.4,216.51,340.348,216.51,338.3Zm4.935-2.5-.412.192c0,1.857.007,3.714,0,5.571,0,.585.173.939.832.953a9.315,9.315,0,0,0,4.206-.619c.688-.314.811-.587.226-1.165C224.653,339.112,223.058,337.447,221.445,335.8Z" transform="translate(-184.925 -297.813)" fill="url(#a)"/><path d="M346.457,401.419a15.241,15.241,0,0,1-4.83-.711c-.9-.284-1.3-.7-.925-1.663a7.332,7.332,0,0,0,.354-1.449c.14-.849.467-1.1,1.346-.724a9.54,9.54,0,0,0,4.374.8c1.278-.079,2.516-.366,2.816-1.827.295-1.432-.769-2.074-1.872-2.573-1.258-.57-2.583-1.009-3.789-1.669-2.21-1.21-3.56-3.022-3.2-5.68a5.738,5.738,0,0,1,4.428-4.859,13.034,13.034,0,0,1,6.892-.011c1.18.27,1.479.788,1.078,2-.669,2.02-.584,2.055-2.684,1.541a6.586,6.586,0,0,0-3.6-.042,1.849,1.849,0,0,0-1.48,1.606A1.813,1.813,0,0,0,346.537,388c1.191.581,2.439,1.041,3.647,1.591,3.573,1.626,5.034,4.584,3.718,7.752-1.223,2.942-3.782,3.837-6.705,4.045C346.865,401.409,346.532,401.416,346.457,401.419Z" transform="translate(-288.752 -353.035)" fill="url(#a)"/><path d="M284.061,386.3c-1.289-1.352-2.475-2.59-3.655-3.835-.533-.563-.743-1.059.331-1.17,3.371-.346,6.748-.667,10.085.217,6.5,1.724,9.364,10.049,5.358,15.481-.4.539-.664.63-1.136.118-.639-.692-1.305-1.364-2.005-1.993a1.329,1.329,0,0,1-.434-1.6,7.982,7.982,0,0,0,.336-3.124c-.344-4.882-3.811-6.2-7.768-5.824C284.114,384.667,284.647,385.626,284.061,386.3Z" transform="translate(-248.328 -353.268)" fill="url(#a)"/><path d="M226.1,381.585c3.024-.005,3.033-.008,3.957,2.955,1.629,5.227,3.208,10.47,4.9,15.677.421,1.3.176,1.616-1.166,1.605-3.3-.027-3.4.053-4.23-3.232-.4-1.595-1.129-2.05-2.723-2-3.7.121-3.789.015-4.625,3.5-.35,1.457-1.046,1.774-2.4,1.731-2.825-.09-2.832-.025-2-2.787q2.209-7.306,4.426-14.609C223.091,381.591,223.087,381.59,226.1,381.585Zm-.152,3.6c-.505,1.879-.908,3.4-1.326,4.923-.926,3.364-.877,3.407,2.625,3.092.742-.067.954-.228.716-1C227.284,390.009,226.686,387.788,225.946,385.19Z" transform="translate(-206.539 -353.697)" fill="url(#a)"/></g></svg>