<svg xmlns="http://www.w3.org/2000/svg" width="8.036" height="7.431" viewBox="0 0 8.036 7.431"><path d="M196.288,315.235c-.2-.1-1.17-.574-1.352-.638s-.314-.1-.445.1-.514.638-.627.766-.23.147-.43.049a5.345,5.345,0,0,1-1.589-.974,5.872,5.872,0,0,1-1.1-1.355c-.113-.2-.011-.3.087-.4s.2-.23.3-.343l.072-.094a2.206,2.206,0,0,0,.125-.234.355.355,0,0,0-.015-.344c-.049-.1-.445-1.065-.612-1.457s-.329-.325-.446-.325-.245-.019-.377-.019a.731.731,0,0,0-.529.245,2.2,2.2,0,0,0-.691,1.638,2.5,2.5,0,0,0,.1.668,4.454,4.454,0,0,0,.706,1.359,8.118,8.118,0,0,0,3.375,2.964c2.012.781,2.012.521,2.375.487a1.973,1.973,0,0,0,1.333-.932,1.622,1.622,0,0,0,.117-.933C196.616,315.381,196.484,315.333,196.288,315.235Z" transform="translate(-188.658 -309.964)" fill="#fd8540" fill-rule="evenodd"/></svg>