<svg xmlns="http://www.w3.org/2000/svg" xmlns:xlink="http://www.w3.org/1999/xlink" width="542" height="522" viewBox="0 0 542 522"><defs><linearGradient id="a" x1="0.5" x2="0.5" y2="1.656" gradientUnits="objectBoundingBox"><stop offset="0" stop-color="#fe8b3b"/><stop offset="1" stop-color="#f7585e"/></linearGradient></defs><g transform="translate(-1530 -2373)"><rect width="542" height="522" rx="29" transform="translate(1530 2373)" fill="rgba(255,255,255,0.04)" opacity="0.99"/><g transform="translate(1652 2514.271)"><path d="M308.533,221.35c0-9.867-.052-19.735.038-29.6.02-2.162-.681-3.385-2.735-4.177-4.682-1.806-9.281-3.827-13.926-5.73-2.61-1.069-2.785-.952-2.793,1.941-.053,22.025.069,44.052-.171,66.075-.424,38.937-.3,77.874-.437,116.811-.013,3.67-.028,3.687-3.491,2.207-13.848-5.919-27.668-11.9-41.56-17.719-2.349-.983-2.76-2.43-2.758-4.681q.07-73.079.035-146.16,0-29.337,0-58.676c0-3.856.045-3.934,3.879-3.171,24.692,4.911,48.849,11.573,71.632,22.518,10.848,5.212,20.969,11.512,29.318,20.416,6.464,6.895,9.647,15.222,11.558,24.229,3.134,14.768,2.592,29.234-3.581,43.215a41.049,41.049,0,0,1-8.814,13.064,12.963,12.963,0,0,1-9.219,3.826c-9.51.235-17.947-2.038-24.718-9.118a7.617,7.617,0,0,1-2.286-5.666C308.575,241.085,308.534,231.217,308.533,221.35Z" transform="translate(-127.265 -138.087)" fill="url(#a)"/><path d="M437.12,428.541c-4.149-1.868-8.451-3.463-12.408-5.673-4.873-2.722-9.565-2.7-14.889-1.366-19.221,4.8-38.544,9.2-57.829,13.744-3.666.864-3.75.784-3.812-2.866-.1-5.724-.189-11.448-.332-17.171-.067-2.681.923-4.248,3.624-5.31,16.86-6.632,34.42-9.787,52.329-12.108,22.629-2.932,41.445,5.2,59.029,17.943A32.192,32.192,0,0,1,473.1,427.3c2.848,5.7,1.931,9.894-3.344,13.526-7.376,5.078-15.64,8.461-23.856,11.869-31.106,12.9-62.993,23.659-94.934,34.256-3.005,1-3.231.8-3.239-2.526-.015-6.785.11-13.573-.062-20.355-.067-2.635.8-3.892,3.324-4.763q34.222-11.811,68.368-23.842c5.892-2.061,11.772-4.156,17.658-6.235Z" transform="translate(-177.666 -260.181)" fill="url(#a)"/><path d="M130.847,398.4c0,3.612-.13,7.231.047,10.834.12,2.454-.7,3.562-3.167,4.193-16.119,4.131-32.174,8.517-48.306,12.594a7.282,7.282,0,0,0-5.683,5.468c-.927,2.984.066,4.652,3.24,4.825a130.823,130.823,0,0,0,17.693-.187,170.023,170.023,0,0,0,34.509-6.174c1.616-.477,2.3-.036,2.276,1.681-.1,6.782-.178,13.565-.2,20.349-.008,2.132-1.2,3.085-3.017,3.776a89.035,89.035,0,0,1-21.836,4.972c-17.178,1.91-34.281,1.559-51.183-2.427-7.781-1.834-15.232-4.545-21.432-9.8-5.5-4.659-8.639-10.481-7.293-17.913.767-4.232,3.439-7.493,6.495-10.361,7.3-6.848,15.978-11.527,25.027-15.54,22.356-9.912,45.82-16.047,69.822-20.353,2.579-.463,3.088.468,3.036,2.7C130.782,390.826,130.846,394.616,130.847,398.4Z" transform="translate(-26.181 -254.071)" fill="url(#a)"/></g><text transform="translate(1711 2775)" fill="#fff" font-size="30" font-family="Cairo-Bold, Cairo" font-weight="700"><tspan x="0.655" y="39">بلايستيشن</tspan></text></g></svg>