<svg xmlns="http://www.w3.org/2000/svg" xmlns:xlink="http://www.w3.org/1999/xlink" width="63.601" height="75.594" viewBox="0 0 63.601 75.594"><defs><linearGradient id="a" x1="0.5" x2="0.5" y2="1" gradientUnits="objectBoundingBox"><stop offset="0" stop-color="#f75d5a"/><stop offset="1" stop-color="#fd8540"/></linearGradient></defs><g transform="translate(-265.396 -346.348)"><path d="M265.87,369.437c-1.651-4.51,1.231-6.7,5.177-8.8,7.906-4.2,15.648-8.718,23.343-13.3,2.108-1.255,3.642-1.369,5.8-.087,8.68,5.142,17.5,10.054,26.242,15.084,1.137.654,2.563,1,2.561,2.872-.014,14.078-1.736,27.721-9.89,39.76-5.029,7.426-12.07,12.413-19.9,16.5-1.83.956-3.1.264-4.563-.463-16.945-8.428-25.66-22.511-28.021-40.911A50.718,50.718,0,0,1,265.87,369.437Zm58.38,4.023c.154-7.033.15-7.026-4.582-9.716-6.466-3.678-12.983-7.272-19.355-11.106-2.106-1.267-3.668-1.376-5.822-.068-6.139,3.731-12.272,7.548-18.737,10.641-4.449,2.129-5.842,4.826-5.4,9.631,1.24,13.357,3.706,26.373,14.407,35.521,13.273,11.346,11.918,11.307,25.088.085C320.928,399.013,323.384,385.577,324.25,373.46Z" fill="url(#a)"/><path d="M317.467,383.24c-.758.837-1.212,1.384-1.713,1.885-4.717,4.719-9.5,9.376-14.141,14.167-1.958,2.018-3.529,1.917-5.359-.083-1.783-1.949-3.687-3.794-5.616-5.6-1.153-1.079-1.739-1.824-.234-3.26s2.3-1.167,3.664.132c5.033,4.806,5.082,4.755,9.914-.076,2.85-2.849,5.686-5.713,8.564-8.532.567-.556,1.056-1.669,2.139-.934C315.613,381.569,316.426,382.368,317.467,383.24Z" transform="translate(-5.808 -8.277)" fill="url(#a)"/></g></svg>