<svg xmlns="http://www.w3.org/2000/svg" xmlns:xlink="http://www.w3.org/1999/xlink" width="542" height="522" viewBox="0 0 542 522"><defs><linearGradient id="a" x1="0.5" x2="0.5" y2="1.656" gradientUnits="objectBoundingBox"><stop offset="0" stop-color="#fe8b3b"/><stop offset="1" stop-color="#f7585e"/></linearGradient></defs><g transform="translate(-962 -2373)"><g transform="translate(-9)"><rect width="542" height="522" rx="29" transform="translate(971 2373)" fill="rgba(255,255,255,0.04)" opacity="0.99"/><g transform="translate(1078 2514.271)"><path d="M873.55,339.614c-1.857,0-3.713.024-5.57-.006q-20.686-.324-41.375-.668c-1.217-.019-2.51.133-2.548-1.687-.041-1.912,1.294-1.846,2.613-1.917,9.738-.535,19.475-1.12,29.215-1.625q18.409-.951,36.828-1.792c4.356-.2,5.032-.664,6.176-4.895.76-2.816.747-2.835-2.2-2.835q-58.531,0-117.062.047c-2.1,0-2.852-.422-2.8-2.675.143-5.855.03-5.859,5.877-5.859q132.033,0,264.066-.008c3.857,0,3.343.351,3.343-3.369q.017-71.476.013-142.948c0-4.345-.038-8.693.161-13.031.1-2.159-.688-2.66-2.694-2.636-7.568.09-15.135.024-22.7.023H923.625q-18.443,0-36.888.009-58.157,0-116.316-.006c-2.54,0-5.077-.133-7.624-.09-2.109.038-2.639.914-2.519,2.664.2,2.919-.011,5.838.026,8.752.364,28.654.032,57.308.21,85.96.013,2.133-.674,2.619-2.67,2.589-5.849-.09-5.857-.013-5.851-5.866q.045-37.364.088-74.729c.005-8.4.005-16.8-.133-25.189-.034-2.045.51-2.63,2.6-2.623,22.062.079,44.124.051,66.185.051q117.175,0,234.35.009c4.041,0,3.532-.537,3.534,3.628q.017,85.976,0,171.955c0,3.936.223,3.33-3.4,3.332q-70.463.02-140.925.009c-3.2,0-3.259.1-2.125,3.064,1.015,2.664,2.581,4.262,5.784,4.341,16.049.392,32.095.974,48.144,1.484,5.849.188,11.7.424,17.55.518,1.953.032,2.713.842,2.675,2.713-.037,1.927-1.1,2.272-2.8,2.251q-25.1-.31-50.2-.51c-.747-.008-1.491,0-2.446,0a3.043,3.043,0,0,0,2.035,1.034q31.193,9.129,62.388,18.25c.779.229,1.7.266,2.2,1a2.858,2.858,0,0,1,.152,3c-.567,1.159-1.555.66-2.375.465-22.613-5.382-45.242-10.7-67.819-16.235-6.337-1.553-12.644-3.165-19.1-4.144a28.264,28.264,0,0,0-10.483.377c-18.5,4.131-36.788,9.114-55.2,13.607-8.96,2.187-17.906,4.433-26.859,6.652-1.233.306-2.525.906-3.065-1.011-.518-1.842.131-3.418,1.855-3.923,6.406-1.872,12.826-3.7,19.242-5.534q16.856-4.818,33.712-9.633c1.994-.572,4.127-.681,6-1.677Z" transform="translate(-731.089 -145.207)" fill="url(#a)"/><path d="M740.854,248.064q0-17.551,0-35.1c.006-6.013,2.441-8.433,8.489-8.44q13.274-.02,26.551,0c5.257.011,7.875,2.628,7.879,7.907.017,23.777.079,47.553-.051,71.329-.023,4.09.439,8.194-.338,12.307-1.364,7.2-6.589,12.941-13.849,14.111a43.337,43.337,0,0,1-14.565-.036c-8.555-1.546-14.138-8.872-14.141-18.01q-.014-22.034,0-44.069Zm16.162,15.456a5.317,5.317,0,1,0,10.609.079,5.318,5.318,0,1,0-10.609-.079Zm17.49-.287a13.063,13.063,0,0,0-1.118-5.851c-.244-.567-.308-1.833-1.36-1.216-.848.5-2.5.869-1.989,2.287a14.656,14.656,0,0,1-.21,10.479c-.557,1.51,1.133,1.445,1.857,1.985,1.007.749,1.251-.25,1.523-.9A16.162,16.162,0,0,0,774.506,263.233Zm-24.384.062a16.825,16.825,0,0,0,1.324,6.761c.283.692.589,1.595,1.546.839.734-.58,2.5-.415,1.782-2.21a13.41,13.41,0,0,1-.207-10.04c.606-1.626-1.081-1.966-1.974-2.48-1.064-.615-1.112.7-1.347,1.24A14.006,14.006,0,0,0,750.122,263.295Zm12,13.415a14.242,14.242,0,0,0,6.461-1.542c.915-.439,1.082-.992.482-1.715-.563-.679-.324-2.469-1.97-1.739a11.28,11.28,0,0,1-9.312.234c-1.7-.7-1.7,1.257-2.358,2.045-.713.855.368,1.1.878,1.364A12.09,12.09,0,0,0,762.124,276.71Zm7.294-23.887c-.036-.668-.63-.775-1.068-.977a13.612,13.612,0,0,0-11.7-.255c-.591.261-1.966.411-1.165,1.574.621.9.642,2.9,2.769,1.889a9.71,9.71,0,0,1,8.044.036A2.334,2.334,0,0,0,769.418,252.823Zm4.666,42.218v.069a12.608,12.608,0,0,0,2.677-.038,2.13,2.13,0,0,0,1.919-2.366c-.13-1.289-1.032-1.748-2.21-1.739-1.5.013-2.992.026-4.482.133a1.889,1.889,0,0,0-1.919,2.056,1.731,1.731,0,0,0,2,1.885C772.741,295.029,773.412,295.041,774.084,295.041ZM750.87,282.113c-1.167,0-1.989-.049-2.8.011a1.886,1.886,0,0,0-2.009,1.944A1.836,1.836,0,0,0,747.835,286a13.452,13.452,0,0,0,2.66.18c1.685-.058,4.071.595,4.007-2.137C754.442,281.479,752.11,282.254,750.87,282.113Zm11.339,3.973,0,.075c.816,0,1.634.036,2.446-.009a1.808,1.808,0,0,0,1.825-1.867,1.733,1.733,0,0,0-1.559-2.082,36.177,36.177,0,0,0-5.335,0,1.736,1.736,0,0,0-1.6,1.848,1.776,1.776,0,0,0,1.561,1.885A18.416,18.416,0,0,0,762.209,286.086Zm12.065-.066v.167c.525,0,1.051.009,1.574,0,1.4-.024,2.658-.411,2.7-2.037.041-1.771-1.265-2.2-2.765-2.176-1.272.022-2.548.064-3.816.159A1.861,1.861,0,0,0,770.079,284c-.062,1.274.779,1.889,1.955,2.011A22.3,22.3,0,0,0,774.273,286.021Zm-24.381,5.065c-.375-.021-.9-.045-1.416-.082-1.373-.1-2.42.334-2.516,1.859-.1,1.617.908,2.287,2.386,2.289s2.989-.041,4.472-.178A1.822,1.822,0,0,0,754.564,293a1.846,1.846,0,0,0-1.839-1.893C751.838,291.02,750.936,291.086,749.893,291.086Zm11.941-.161c-.471.041-1.371.062-2.251.21a1.87,1.87,0,0,0-.21,3.705,13.012,13.012,0,0,0,5.347.216,1.941,1.941,0,0,0,1.763-2.227,1.873,1.873,0,0,0-1.983-1.748C763.753,291.033,763.006,290.992,761.834,290.925Zm3.369-60.043a2.951,2.951,0,0,0-2.818-3.255,2.778,2.778,0,0,0-2.746,2.925,2.822,2.822,0,0,0,2.808,3.075A2.753,2.753,0,0,0,765.2,230.881Zm.009,10.628c-.182-1.688-1.007-2.891-2.81-2.882s-2.673,1.212-2.763,2.925a2.816,2.816,0,0,0,2.9,3.033C764.321,244.405,765.111,243.24,765.212,241.509Zm-10.918-10.89c-.161-1.687-.944-2.857-2.741-2.988a2.8,2.8,0,0,0-2.8,3.12c.1,1.747,1.005,2.88,2.8,2.85C753.378,233.568,754.147,232.333,754.294,230.619Zm21.614.126c-.073-1.822-.908-2.94-2.677-3.112a2.811,2.811,0,0,0-2.842,3.075c.1,1.72.964,2.913,2.773,2.895S775.78,232.39,775.907,230.744Zm-27.181,10.98c.18,1.656,1.007,2.859,2.8,2.838s2.671-1.208,2.735-2.936a2.779,2.779,0,0,0-2.9-3.015C749.576,238.794,748.81,239.961,748.726,241.725Zm24.559-3.127a2.881,2.881,0,0,0-2.911,2.977,2.764,2.764,0,1,0,2.911-2.977Zm-20.323-19.154v-.011c.966,0,1.94.062,2.9-.019a1.349,1.349,0,0,0,1.349-1.486,1.3,1.3,0,0,0-1.3-1.306c-1.93-.058-3.866-.079-5.8-.021a1.3,1.3,0,0,0-1.321,1.49c.039.912.664,1.3,1.488,1.343C751.172,219.481,752.069,219.443,752.962,219.443Z" transform="translate(-740.828 -93.257)" fill="url(#a)"/></g></g><text transform="translate(1077 2775)" fill="#fff" font-size="30" font-family="Cairo-Bold, Cairo" font-weight="700"><tspan x="5.445" y="39">أجهزة التلفزيون الذكية</tspan></text></g></svg>