<svg xmlns="http://www.w3.org/2000/svg" width="36.406" height="24.335" viewBox="0 0 36.406 24.335"><rect width="36.406" height="24.335" fill="#fff"/><rect width="36.406" height="1.872" fill="#b22234"/><rect width="36.406" height="1.872" transform="translate(0 3.744)" fill="#b22234"/><rect width="36.406" height="1.872" transform="translate(0 7.488)" fill="#b22234"/><rect width="36.406" height="1.872" transform="translate(0 11.231)" fill="#b22234"/><rect width="36.406" height="1.872" transform="translate(0 14.975)" fill="#b22234"/><rect width="36.406" height="1.872" transform="translate(0 18.719)" fill="#b22234"/><rect width="36.406" height="1.872" transform="translate(0 22.463)" fill="#b22234"/><rect width="18.494" height="13.103" fill="#304f7d"/><path d="M172.236,715.127l.441.32-.168.518.441-.32.441.32-.168-.518.441-.32h-.545l-.168-.518-.168.518Z" transform="translate(-171.367 -714.063)" fill="#fff"/><path d="M218.043,715.127l.441.32-.168.518.441-.32.441.32-.168-.518.441-.32h-.545l-.168-.518-.168.518Z" transform="translate(-214.108 -714.063)" fill="#fff"/><path d="M263.85,715.127l.441.32-.168.518.441-.32.441.32-.168-.518.441-.32h-.545l-.168-.518-.168.518Z" transform="translate(-256.849 -714.063)" fill="#fff"/><path d="M309.657,715.127l.441.32-.168.518.441-.32.441.32-.168-.518.441-.32h-.544l-.168-.518-.168.518Z" transform="translate(-299.59 -714.063)" fill="#fff"/><path d="M355.464,715.127l.441.32-.168.518.441-.32.441.32-.168-.518.441-.32h-.545l-.168-.518-.168.518Z" transform="translate(-342.33 -714.063)" fill="#fff"/><path d="M401.271,715.127l.441.32-.168.518.441-.32.441.32-.168-.518.441-.32h-.544l-.168-.518-.168.518Z" transform="translate(-385.071 -714.063)" fill="#fff"/><path d="M195.139,734.759l.441.32-.168.518.441-.32.441.32-.168-.518.441-.32h-.545l-.168-.518-.168.518Z" transform="translate(-192.737 -732.381)" fill="#fff"/><path d="M240.946,734.759l.441.32-.168.518.441-.32.441.32-.168-.518.441-.32h-.545l-.168-.518-.168.518Z" transform="translate(-235.478 -732.381)" fill="#fff"/><path d="M286.753,734.759l.441.32-.168.518.441-.32.441.32-.168-.518.441-.32h-.544l-.168-.518-.168.518Z" transform="translate(-278.219 -732.381)" fill="#fff"/><path d="M332.56,734.759l.441.32-.168.518.441-.32.441.32-.168-.518.441-.32h-.545l-.168-.518-.168.518Z" transform="translate(-320.959 -732.381)" fill="#fff"/><path d="M378.367,734.759l.44.32-.168.518.441-.32.441.32-.168-.518.441-.32h-.545l-.168-.518-.168.518Z" transform="translate(-363.7 -732.381)" fill="#fff"/><path d="M172.236,754.391l.441.32-.168.518.441-.32.441.32-.168-.518.441-.32h-.545l-.168-.518-.168.518Z" transform="translate(-171.367 -750.699)" fill="#fff"/><path d="M218.043,754.391l.441.32-.168.518.441-.32.441.32-.168-.518.441-.32h-.545l-.168-.518-.168.518Z" transform="translate(-214.108 -750.699)" fill="#fff"/><path d="M263.85,754.391l.441.32-.168.518.441-.32.441.32-.168-.518.441-.32h-.545l-.168-.518-.168.518Z" transform="translate(-256.849 -750.699)" fill="#fff"/><path d="M309.657,754.391l.441.32-.168.518.441-.32.441.32-.168-.518.441-.32h-.544l-.168-.518-.168.518Z" transform="translate(-299.59 -750.699)" fill="#fff"/><path d="M355.464,754.391l.441.32-.168.518.441-.32.441.32-.168-.518.441-.32h-.545l-.168-.518-.168.518Z" transform="translate(-342.33 -750.699)" fill="#fff"/><path d="M401.271,754.391l.441.32-.168.518.441-.32.441.32-.168-.518.441-.32h-.544l-.168-.518-.168.518Z" transform="translate(-385.071 -750.699)" fill="#fff"/><path d="M195.7,774.087l.441.32-.168.518.441-.32.441.32-.168-.518.441-.32h-.545l-.168-.518-.168.518Z" transform="translate(-193.264 -769.077)" fill="#fff"/><path d="M241.512,774.087l.44.32-.168.518.441-.32.441.32-.168-.518.441-.32h-.545l-.168-.518-.168.518Z" transform="translate(-236.006 -769.077)" fill="#fff"/><path d="M287.319,774.087l.441.32-.168.518.441-.32.44.32-.168-.518.441-.32H288.2l-.168-.518-.168.518Z" transform="translate(-278.747 -769.077)" fill="#fff"/><path d="M333.125,774.087l.44.32-.168.518.44-.32.441.32-.168-.518.44-.32h-.544l-.168-.518-.168.518Z" transform="translate(-321.487 -769.077)" fill="#fff"/><path d="M378.932,774.087l.441.32-.168.518.441-.32.441.32-.168-.518.441-.32h-.545l-.168-.518-.168.518Z" transform="translate(-364.227 -769.077)" fill="#fff"/><path d="M172.931,793.555l.441.32-.168.518.441-.32.441.32-.168-.518.441-.32h-.545l-.168-.518-.168.518Z" transform="translate(-172.016 -787.241)" fill="#fff"/><path d="M218.738,793.555l.441.32-.168.518.441-.32.441.32-.168-.518.441-.32h-.545l-.168-.518-.168.518Z" transform="translate(-214.756 -787.241)" fill="#fff"/><path d="M264.545,793.555l.44.32-.168.518.441-.32.44.32-.168-.518.441-.32h-.545l-.168-.518-.168.518Z" transform="translate(-257.497 -787.241)" fill="#fff"/><path d="M310.352,793.555l.441.32-.168.518.441-.32.441.32-.168-.518.44-.32h-.544l-.168-.518-.168.518Z" transform="translate(-300.238 -787.241)" fill="#fff"/><path d="M356.159,793.555l.441.32-.168.518.441-.32.441.32-.168-.518.441-.32h-.544l-.168-.518-.168.518Z" transform="translate(-342.978 -787.241)" fill="#fff"/><path d="M401.966,793.555l.44.32-.168.518.441-.32.441.32-.168-.518.441-.32h-.545l-.168-.518-.168.518Z" transform="translate(-385.719 -787.241)" fill="#fff"/><path d="M173.36,832.2l.441.32-.168.518.441-.32.441.32-.168-.518.441-.32h-.545l-.168-.518-.168.518Z" transform="translate(-172.416 -823.297)" fill="#fff"/><path d="M219.167,832.2l.441.32-.168.518.441-.32.441.32-.168-.518.441-.32h-.545l-.168-.518-.168.518Z" transform="translate(-215.157 -823.297)" fill="#fff"/><path d="M264.974,832.2l.441.32-.168.518.441-.32.441.32-.168-.518.441-.32h-.545l-.168-.518-.168.518Z" transform="translate(-257.898 -823.297)" fill="#fff"/><path d="M310.782,832.2l.441.32-.168.518.441-.32.441.32-.168-.518.441-.32h-.545l-.168-.518-.168.518Z" transform="translate(-300.639 -823.297)" fill="#fff"/><path d="M356.588,832.2l.441.32-.168.518.441-.32.44.32-.168-.518.441-.32h-.545l-.168-.518-.168.518Z" transform="translate(-343.379 -823.297)" fill="#fff"/><path d="M402.395,832.2l.44.32-.168.518.441-.32.441.32-.168-.518.441-.32h-.545l-.168-.518-.168.518Z" transform="translate(-386.12 -823.297)" fill="#fff"/><path d="M172.8,871.292l.441.32-.168.518.441-.32.441.32-.168-.518.441-.32h-.545l-.168-.518-.168.518Z" transform="translate(-171.894 -859.775)" fill="#fff"/><path d="M218.607,871.292l.441.32-.168.518.441-.32.441.32-.168-.518.441-.32h-.545l-.168-.518-.168.518Z" transform="translate(-214.634 -859.775)" fill="#fff"/><path d="M264.415,871.292l.441.32-.168.518.441-.32.441.32-.168-.518.441-.32H265.3l-.168-.518-.168.518Z" transform="translate(-257.376 -859.775)" fill="#fff"/><path d="M310.222,871.292l.441.32-.168.518.441-.32.441.32-.168-.518.441-.32H311.1l-.168-.518-.168.518Z" transform="translate(-300.116 -859.775)" fill="#fff"/><path d="M356.028,871.292l.441.32-.168.518.441-.32.441.32-.168-.518.44-.32h-.545l-.168-.518-.168.518Z" transform="translate(-342.857 -859.775)" fill="#fff"/><path d="M401.835,871.292l.44.32-.168.518.441-.32.441.32-.168-.518.441-.32h-.544l-.168-.518-.168.518Z" transform="translate(-385.598 -859.775)" fill="#fff"/><path d="M195.84,812.681l.441.32-.168.518.441-.32.441.32-.168-.518.441-.32h-.545l-.168-.518-.168.518Z" transform="translate(-193.391 -805.088)" fill="#fff"/><path d="M241.648,812.681l.441.32-.168.518.441-.32.441.32-.168-.518.441-.32h-.545l-.168-.518-.168.518Z" transform="translate(-236.132 -805.088)" fill="#fff"/><path d="M287.455,812.681l.441.32-.168.518.441-.32.44.32L288.44,813l.441-.32h-.545l-.168-.518-.168.518Z" transform="translate(-278.873 -805.088)" fill="#fff"/><path d="M333.261,812.681l.441.32-.168.518.441-.32.441.32-.168-.518.441-.32h-.545l-.168-.518-.168.518Z" transform="translate(-321.614 -805.088)" fill="#fff"/><path d="M379.068,812.681l.441.32-.168.518.441-.32.441.32-.168-.518.441-.32h-.544l-.168-.518-.168.518Z" transform="translate(-364.354 -805.088)" fill="#fff"/><path d="M195.7,851.717l.441.32-.168.518.441-.32.441.32-.168-.518.441-.32h-.545l-.168-.518-.168.518Z" transform="translate(-193.265 -841.51)" fill="#fff"/><path d="M241.512,851.717l.441.32-.168.518.441-.32.441.32-.168-.518.441-.32h-.545l-.168-.518-.168.518Z" transform="translate(-236.006 -841.51)" fill="#fff"/><path d="M287.319,851.717l.441.32-.168.518.441-.32.441.32-.168-.518.441-.32H288.2l-.168-.518-.168.518Z" transform="translate(-278.747 -841.51)" fill="#fff"/><path d="M333.125,851.717l.44.32-.168.518.441-.32.44.32-.168-.518.44-.32h-.544l-.168-.518-.168.518Z" transform="translate(-321.487 -841.51)" fill="#fff"/><path d="M378.933,851.717l.441.32-.168.518.441-.32.441.32-.168-.518.441-.32h-.545l-.168-.518-.168.518Z" transform="translate(-364.228 -841.51)" fill="#fff"/></svg>